<mxfile host="app.diagrams.net" agent="Mozilla/5.0 (Windows NT 10.0; Win64; x64) AppleWebKit/537.36 (KHTML, like Gecko) Chrome/130.0.0.0 Safari/537.36 Edg/130.0.0.0" version="24.8.3">
  <diagram name="Page-1" id="XbZiqxnuOPk8UY7A78Z1">
    <mxGraphModel dx="2076" dy="1118" grid="1" gridSize="10" guides="1" tooltips="1" connect="1" arrows="1" fold="1" page="1" pageScale="1" pageWidth="850" pageHeight="1100" math="0" shadow="0">
      <root>
        <mxCell id="0" />
        <mxCell id="1" parent="0" />
        <mxCell id="IACA-NkdxXSS0XeJKZAz-35" value="" style="rounded=1;whiteSpace=wrap;html=1;fillColor=#fff2cc;strokeColor=#d6b656;" parent="1" vertex="1">
          <mxGeometry x="450" y="130" width="220" height="100" as="geometry" />
        </mxCell>
        <mxCell id="IACA-NkdxXSS0XeJKZAz-33" value="" style="rounded=1;whiteSpace=wrap;html=1;fillColor=#fff2cc;strokeColor=#d6b656;" parent="1" vertex="1">
          <mxGeometry x="210" y="130" width="220" height="100" as="geometry" />
        </mxCell>
        <mxCell id="IACA-NkdxXSS0XeJKZAz-31" value="" style="rounded=1;whiteSpace=wrap;html=1;fillColor=#fff2cc;strokeColor=#d6b656;" parent="1" vertex="1">
          <mxGeometry x="10" y="130" width="180" height="100" as="geometry" />
        </mxCell>
        <mxCell id="IACA-NkdxXSS0XeJKZAz-1" value="" style="endArrow=none;html=1;rounded=0;strokeWidth=1;dashed=1;dashPattern=1 1;" parent="1" edge="1">
          <mxGeometry width="50" height="50" relative="1" as="geometry">
            <mxPoint x="80" y="124.5" as="sourcePoint" />
            <mxPoint x="680" y="124.5" as="targetPoint" />
          </mxGeometry>
        </mxCell>
        <mxCell id="IACA-NkdxXSS0XeJKZAz-2" value="" style="endArrow=none;html=1;rounded=0;dashed=1;dashPattern=1 1;" parent="1" edge="1">
          <mxGeometry width="50" height="50" relative="1" as="geometry">
            <mxPoint x="200" y="240" as="sourcePoint" />
            <mxPoint x="200" y="100" as="targetPoint" />
          </mxGeometry>
        </mxCell>
        <mxCell id="IACA-NkdxXSS0XeJKZAz-3" value="" style="endArrow=none;html=1;rounded=0;dashed=1;dashPattern=1 1;" parent="1" edge="1">
          <mxGeometry width="50" height="50" relative="1" as="geometry">
            <mxPoint x="320" y="240" as="sourcePoint" />
            <mxPoint x="320" y="100" as="targetPoint" />
          </mxGeometry>
        </mxCell>
        <mxCell id="IACA-NkdxXSS0XeJKZAz-4" value="" style="endArrow=none;html=1;rounded=0;dashed=1;dashPattern=1 1;" parent="1" edge="1">
          <mxGeometry width="50" height="50" relative="1" as="geometry">
            <mxPoint x="440" y="240" as="sourcePoint" />
            <mxPoint x="440" y="100" as="targetPoint" />
          </mxGeometry>
        </mxCell>
        <mxCell id="IACA-NkdxXSS0XeJKZAz-7" value="" style="endArrow=classic;html=1;rounded=0;fillColor=#d5e8d4;strokeColor=#82b366;" parent="1" edge="1">
          <mxGeometry width="50" height="50" relative="1" as="geometry">
            <mxPoint x="80" y="40" as="sourcePoint" />
            <mxPoint x="680" y="40" as="targetPoint" />
          </mxGeometry>
        </mxCell>
        <mxCell id="IACA-NkdxXSS0XeJKZAz-8" value="Flow of Work" style="text;html=1;align=center;verticalAlign=middle;whiteSpace=wrap;rounded=0;fontStyle=1" parent="1" vertex="1">
          <mxGeometry x="340" y="10" width="80" height="30" as="geometry" />
        </mxCell>
        <mxCell id="IACA-NkdxXSS0XeJKZAz-9" value="&lt;b&gt;Raw Data&lt;/b&gt;" style="text;html=1;align=center;verticalAlign=middle;whiteSpace=wrap;rounded=0;" parent="1" vertex="1">
          <mxGeometry x="10" y="30" width="60" height="30" as="geometry" />
        </mxCell>
        <mxCell id="IACA-NkdxXSS0XeJKZAz-10" value="&lt;b&gt;Final Outputs&lt;/b&gt;" style="text;html=1;align=center;verticalAlign=middle;whiteSpace=wrap;rounded=0;" parent="1" vertex="1">
          <mxGeometry x="690" y="30" width="80" height="30" as="geometry" />
        </mxCell>
        <mxCell id="IACA-NkdxXSS0XeJKZAz-11" value="Data Ingestion" style="text;html=1;align=center;verticalAlign=middle;whiteSpace=wrap;rounded=0;" parent="1" vertex="1">
          <mxGeometry x="80" y="90" width="120" height="30" as="geometry" />
        </mxCell>
        <mxCell id="IACA-NkdxXSS0XeJKZAz-12" value="Data Processing" style="text;html=1;align=center;verticalAlign=middle;whiteSpace=wrap;rounded=0;" parent="1" vertex="1">
          <mxGeometry x="200" y="90" width="120" height="30" as="geometry" />
        </mxCell>
        <mxCell id="IACA-NkdxXSS0XeJKZAz-13" value="Elementary indexes" style="text;html=1;align=center;verticalAlign=middle;whiteSpace=wrap;rounded=0;" parent="1" vertex="1">
          <mxGeometry x="320" y="84.5" width="120" height="40" as="geometry" />
        </mxCell>
        <mxCell id="IACA-NkdxXSS0XeJKZAz-15" value="" style="endArrow=none;html=1;rounded=0;dashed=1;dashPattern=1 1;" parent="1" edge="1">
          <mxGeometry width="50" height="50" relative="1" as="geometry">
            <mxPoint x="560" y="240" as="sourcePoint" />
            <mxPoint x="560" y="100" as="targetPoint" />
          </mxGeometry>
        </mxCell>
        <mxCell id="IACA-NkdxXSS0XeJKZAz-16" value="Aggregation" style="text;html=1;align=center;verticalAlign=middle;whiteSpace=wrap;rounded=0;" parent="1" vertex="1">
          <mxGeometry x="440" y="90" width="120" height="30" as="geometry" />
        </mxCell>
        <mxCell id="IACA-NkdxXSS0XeJKZAz-17" value="Finalization" style="text;html=1;align=center;verticalAlign=middle;whiteSpace=wrap;rounded=0;" parent="1" vertex="1">
          <mxGeometry x="560" y="90" width="120" height="30" as="geometry" />
        </mxCell>
        <mxCell id="IACA-NkdxXSS0XeJKZAz-38" style="edgeStyle=orthogonalEdgeStyle;rounded=0;orthogonalLoop=1;jettySize=auto;html=1;exitX=1;exitY=0.5;exitDx=0;exitDy=0;entryX=0;entryY=0.5;entryDx=0;entryDy=0;" parent="1" source="IACA-NkdxXSS0XeJKZAz-18" target="IACA-NkdxXSS0XeJKZAz-37" edge="1">
          <mxGeometry relative="1" as="geometry" />
        </mxCell>
        <mxCell id="IACA-NkdxXSS0XeJKZAz-18" value="&lt;b&gt;System&lt;/b&gt;" style="ellipse;whiteSpace=wrap;html=1;aspect=fixed;fillColor=#d5e8d4;strokeColor=#82b366;" parent="1" vertex="1">
          <mxGeometry x="115" y="140" width="50" height="50" as="geometry" />
        </mxCell>
        <mxCell id="IACA-NkdxXSS0XeJKZAz-21" style="edgeStyle=orthogonalEdgeStyle;rounded=0;orthogonalLoop=1;jettySize=auto;html=1;" parent="1" source="IACA-NkdxXSS0XeJKZAz-39" target="IACA-NkdxXSS0XeJKZAz-18" edge="1">
          <mxGeometry relative="1" as="geometry" />
        </mxCell>
        <mxCell id="IACA-NkdxXSS0XeJKZAz-20" value="&lt;b&gt;Input&lt;/b&gt;" style="text;html=1;align=center;verticalAlign=middle;whiteSpace=wrap;rounded=0;strokeColor=default;" parent="1" vertex="1">
          <mxGeometry x="-100" y="150" width="60" height="30" as="geometry" />
        </mxCell>
        <mxCell id="IACA-NkdxXSS0XeJKZAz-27" style="edgeStyle=orthogonalEdgeStyle;rounded=0;orthogonalLoop=1;jettySize=auto;html=1;exitX=1;exitY=0.5;exitDx=0;exitDy=0;" parent="1" source="IACA-NkdxXSS0XeJKZAz-37" target="IACA-NkdxXSS0XeJKZAz-25" edge="1">
          <mxGeometry relative="1" as="geometry">
            <mxPoint x="405" y="165" as="sourcePoint" />
          </mxGeometry>
        </mxCell>
        <mxCell id="IACA-NkdxXSS0XeJKZAz-28" style="edgeStyle=orthogonalEdgeStyle;rounded=0;orthogonalLoop=1;jettySize=auto;html=1;" parent="1" source="IACA-NkdxXSS0XeJKZAz-25" target="IACA-NkdxXSS0XeJKZAz-26" edge="1">
          <mxGeometry relative="1" as="geometry" />
        </mxCell>
        <mxCell id="IACA-NkdxXSS0XeJKZAz-25" value="&lt;b&gt;System&lt;/b&gt;" style="ellipse;whiteSpace=wrap;html=1;aspect=fixed;fillColor=#d5e8d4;strokeColor=#82b366;" parent="1" vertex="1">
          <mxGeometry x="475" y="140" width="50" height="50" as="geometry" />
        </mxCell>
        <mxCell id="IACA-NkdxXSS0XeJKZAz-30" style="edgeStyle=orthogonalEdgeStyle;rounded=0;orthogonalLoop=1;jettySize=auto;html=1;entryX=0;entryY=0.5;entryDx=0;entryDy=0;" parent="1" source="IACA-NkdxXSS0XeJKZAz-26" target="IACA-NkdxXSS0XeJKZAz-29" edge="1">
          <mxGeometry relative="1" as="geometry" />
        </mxCell>
        <mxCell id="IACA-NkdxXSS0XeJKZAz-26" value="&lt;b&gt;System&lt;/b&gt;" style="ellipse;whiteSpace=wrap;html=1;aspect=fixed;fillColor=#d5e8d4;strokeColor=#82b366;" parent="1" vertex="1">
          <mxGeometry x="595" y="140" width="50" height="50" as="geometry" />
        </mxCell>
        <mxCell id="IACA-NkdxXSS0XeJKZAz-29" value="&lt;b&gt;CPI&lt;/b&gt;" style="text;html=1;align=center;verticalAlign=middle;whiteSpace=wrap;rounded=0;strokeColor=default;" parent="1" vertex="1">
          <mxGeometry x="720" y="150" width="60" height="30" as="geometry" />
        </mxCell>
        <mxCell id="IACA-NkdxXSS0XeJKZAz-32" value="Team A" style="text;html=1;align=center;verticalAlign=middle;whiteSpace=wrap;rounded=0;" parent="1" vertex="1">
          <mxGeometry x="97.5" y="200" width="85" height="30" as="geometry" />
        </mxCell>
        <mxCell id="IACA-NkdxXSS0XeJKZAz-34" value="Team B" style="text;html=1;align=center;verticalAlign=middle;whiteSpace=wrap;rounded=0;" parent="1" vertex="1">
          <mxGeometry x="337.5" y="200" width="85" height="30" as="geometry" />
        </mxCell>
        <mxCell id="IACA-NkdxXSS0XeJKZAz-36" value="Team C" style="text;html=1;align=center;verticalAlign=middle;whiteSpace=wrap;rounded=0;" parent="1" vertex="1">
          <mxGeometry x="577.5" y="200" width="85" height="30" as="geometry" />
        </mxCell>
        <mxCell id="IACA-NkdxXSS0XeJKZAz-37" value="&lt;b&gt;System&lt;/b&gt;" style="ellipse;whiteSpace=wrap;html=1;fillColor=#d5e8d4;strokeColor=#82b366;" parent="1" vertex="1">
          <mxGeometry x="244.69" y="142.5" width="150.62" height="45" as="geometry" />
        </mxCell>
        <mxCell id="IACA-NkdxXSS0XeJKZAz-40" value="" style="edgeStyle=orthogonalEdgeStyle;rounded=0;orthogonalLoop=1;jettySize=auto;html=1;" parent="1" source="IACA-NkdxXSS0XeJKZAz-20" target="IACA-NkdxXSS0XeJKZAz-39" edge="1">
          <mxGeometry relative="1" as="geometry">
            <mxPoint x="-40" y="165" as="sourcePoint" />
            <mxPoint x="115" y="165" as="targetPoint" />
          </mxGeometry>
        </mxCell>
        <mxCell id="IACA-NkdxXSS0XeJKZAz-39" value="&lt;b&gt;System&lt;/b&gt;" style="ellipse;whiteSpace=wrap;html=1;aspect=fixed;fillColor=#d5e8d4;strokeColor=#82b366;" parent="1" vertex="1">
          <mxGeometry x="30" y="140" width="50" height="50" as="geometry" />
        </mxCell>
      </root>
    </mxGraphModel>
  </diagram>
</mxfile>
